<svg width="150" height="15" viewBox="0 0 150 15" fill="none" xmlns="http://www.w3.org/2000/svg">
<path d="M0.665305 14V12.5426H1.04883C1.59428 12.5426 2.01829 12.3679 2.32085 12.0185C2.6234 11.669 2.84073 11.1044 2.97283 10.3246C3.1092 9.54474 3.20082 8.51136 3.24769 7.22443L3.47781 0.909091H11.4551V14H9.86985V2.31534H4.98633L4.78178 7.53125C4.73065 8.90341 4.60494 10.071 4.40465 11.0341C4.20437 11.9972 3.85281 12.7322 3.34996 13.2393C2.84712 13.7464 2.11417 14 1.1511 14H0.665305ZM25.6678 7.45455C25.6678 8.83523 25.4185 10.0284 24.9199 11.0341C24.4213 12.0398 23.7374 12.8153 22.8681 13.3608C21.9988 13.9062 21.0059 14.179 19.8894 14.179C18.7729 14.179 17.78 13.9062 16.9107 13.3608C16.0414 12.8153 15.3574 12.0398 14.8588 11.0341C14.3603 10.0284 14.111 8.83523 14.111 7.45455C14.111 6.07386 14.3603 4.88068 14.8588 3.875C15.3574 2.86932 16.0414 2.09375 16.9107 1.5483C17.78 1.00284 18.7729 0.730113 19.8894 0.730113C21.0059 0.730113 21.9988 1.00284 22.8681 1.5483C23.7374 2.09375 24.4213 2.86932 24.9199 3.875C25.4185 4.88068 25.6678 6.07386 25.6678 7.45455ZM24.1337 7.45455C24.1337 6.32102 23.9441 5.36435 23.5648 4.58452C23.1898 3.80469 22.6806 3.21449 22.0371 2.81392C21.3979 2.41335 20.682 2.21307 19.8894 2.21307C19.0968 2.21307 18.3787 2.41335 17.7353 2.81392C17.0961 3.21449 16.5868 3.80469 16.2076 4.58452C15.8326 5.36435 15.6451 6.32102 15.6451 7.45455C15.6451 8.58807 15.8326 9.54474 16.2076 10.3246C16.5868 11.1044 17.0961 11.6946 17.7353 12.0952C18.3787 12.4957 19.0968 12.696 19.8894 12.696C20.682 12.696 21.3979 12.4957 22.0371 12.0952C22.6806 11.6946 23.1898 11.1044 23.5648 10.3246C23.9441 9.54474 24.1337 8.58807 24.1337 7.45455ZM36.2338 0.909091V2.31534H29.9185V14H28.3333V0.909091H36.2338ZM49.1873 7.45455C49.1873 8.83523 48.938 10.0284 48.4395 11.0341C47.9409 12.0398 47.2569 12.8153 46.3876 13.3608C45.5183 13.9062 44.5254 14.179 43.4089 14.179C42.2924 14.179 41.2995 13.9062 40.4302 13.3608C39.5609 12.8153 38.877 12.0398 38.3784 11.0341C37.8798 10.0284 37.6305 8.83523 37.6305 7.45455C37.6305 6.07386 37.8798 4.88068 38.3784 3.875C38.877 2.86932 39.5609 2.09375 40.4302 1.5483C41.2995 1.00284 42.2924 0.730113 43.4089 0.730113C44.5254 0.730113 45.5183 1.00284 46.3876 1.5483C47.2569 2.09375 47.9409 2.86932 48.4395 3.875C48.938 4.88068 49.1873 6.07386 49.1873 7.45455ZM47.6532 7.45455C47.6532 6.32102 47.4636 5.36435 47.0843 4.58452C46.7093 3.80469 46.2001 3.21449 45.5566 2.81392C44.9174 2.41335 44.2015 2.21307 43.4089 2.21307C42.6163 2.21307 41.8983 2.41335 41.2548 2.81392C40.6156 3.21449 40.1064 3.80469 39.7271 4.58452C39.3521 5.36435 39.1646 6.32102 39.1646 7.45455C39.1646 8.58807 39.3521 9.54474 39.7271 10.3246C40.1064 11.1044 40.6156 11.6946 41.2548 12.0952C41.8983 12.4957 42.6163 12.696 43.4089 12.696C44.2015 12.696 44.9174 12.4957 45.5566 12.0952C46.2001 11.6946 46.7093 11.1044 47.0843 10.3246C47.4636 9.54474 47.6532 8.58807 47.6532 7.45455ZM66.7079 0.909091V14H65.1227V2.31534H58.5261V14H56.9409V0.909091H66.7079ZM70.4425 14H68.7805L73.5874 0.909091H75.2237L80.0305 14H78.3686L74.4567 2.98011H74.3544L70.4425 14ZM71.0561 8.88636H77.755V10.2926H71.0561V8.88636ZM82.0696 14V0.909091H86.4929C87.5199 0.909091 88.3594 1.09446 89.0114 1.4652C89.6676 1.83168 90.1534 2.32812 90.4688 2.95455C90.7841 3.58097 90.9418 4.27983 90.9418 5.05114C90.9418 5.82244 90.7841 6.52344 90.4688 7.15412C90.1577 7.7848 89.6761 8.28764 89.0241 8.66264C88.3722 9.03338 87.5369 9.21875 86.5185 9.21875H83.348V7.8125H86.4673C87.1705 7.8125 87.7351 7.69105 88.1612 7.44815C88.5874 7.20526 88.8963 6.87713 89.0881 6.46378C89.2841 6.04616 89.3821 5.57528 89.3821 5.05114C89.3821 4.52699 89.2841 4.05824 89.0881 3.64489C88.8963 3.23153 88.5852 2.90767 88.1548 2.6733C87.7244 2.43466 87.1534 2.31534 86.4418 2.31534H83.6548V14H82.0696ZM92.7795 2.31534V0.909091H102.598V2.31534H98.4812V14H96.896V2.31534H92.7795ZM105.044 14V0.909091H106.629V6.73864H113.61V0.909091H115.195V14H113.61V8.14489H106.629V14H105.044ZM118.368 14V0.909091H126.269V2.31534H119.954V6.73864H125.86V8.14489H119.954V12.5938H126.371V14H118.368ZM129.126 14V0.909091H133.55C134.577 0.909091 135.416 1.09446 136.068 1.4652C136.724 1.83168 137.21 2.32812 137.525 2.95455C137.841 3.58097 137.998 4.27983 137.998 5.05114C137.998 5.82244 137.841 6.52344 137.525 7.15412C137.214 7.7848 136.733 8.28764 136.081 8.66264C135.429 9.03338 134.594 9.21875 133.575 9.21875H130.405V7.8125H133.524C134.227 7.8125 134.792 7.69105 135.218 7.44815C135.644 7.20526 135.953 6.87713 136.145 6.46378C136.341 6.04616 136.439 5.57528 136.439 5.05114C136.439 4.52699 136.341 4.05824 136.145 3.64489C135.953 3.23153 135.642 2.90767 135.211 2.6733C134.781 2.43466 134.21 2.31534 133.498 2.31534H130.711V14H129.126ZM139.753 14H138.091L142.898 0.909091H144.534L149.341 14H147.679L143.767 2.98011H143.665L139.753 14ZM140.367 8.88636H147.066V10.2926H140.367V8.88636Z" fill="#1C1C1C"/>
</svg>
