<svg width="73" height="34" viewBox="0 0 73 34" fill="none" xmlns="http://www.w3.org/2000/svg">
<g opacity="0.6">
<path d="M16.8923 34H11.1511L0 17.3876V16.8339H6.29322L16.8923 34ZM16.8923 0L6.29322 17.1661H0V16.6124L11.1511 0H16.8923ZM31.0245 34H25.2833L14.1321 17.3876V16.8339H20.4254L31.0245 34ZM31.0245 0L20.4254 17.1661H14.1321V16.6124L25.2833 0H31.0245Z" fill="#0000FF"/>
<path d="M41.9755 34L52.5746 16.8339H58.8679V17.3876L47.7167 34H41.9755ZM41.9755 0H47.7167L58.8679 16.6124V17.1661H52.5746L41.9755 0ZM56.1077 34L66.7068 16.8339H73V17.3876L61.8489 34H56.1077ZM56.1077 0H61.8489L73 16.6124V17.1661H66.7068L56.1077 0Z" fill="#0000FF"/>
</g>
</svg>
