<svg width="57" height="27" viewBox="0 0 57 27" fill="none" xmlns="http://www.w3.org/2000/svg">
<g id="&#194;&#171;&#194;&#187;">
<path d="M13.1899 27H8.70706L0 13.8078V13.3681H4.91389L13.1899 27ZM13.1899 0L4.91389 13.6319H0V13.1922L8.70706 0H13.1899ZM24.2246 27H19.7418L11.0347 13.8078V13.3681H15.9486L24.2246 27ZM24.2246 0L15.9486 13.6319H11.0347V13.1922L19.7418 0H24.2246Z" fill="#0000FF"/>
<path d="M32.7754 27L41.0514 13.3681H45.9653V13.8078L37.2583 27H32.7754ZM32.7754 0H37.2583L45.9653 13.1922V13.6319H41.0514L32.7754 0ZM43.8101 27L52.0861 13.3681H57V13.8078L48.2929 27H43.8101ZM43.8101 0H48.2929L57 13.1922V13.6319H52.0861L43.8101 0Z" fill="#0000FF"/>
</g>
</svg>
