<svg width="162" height="36" viewBox="0 0 162 36" fill="none" xmlns="http://www.w3.org/2000/svg">
<g id="noname - &#208;&#187;&#208;&#190;&#208;&#179;&#208;&#190;&#209;&#130;&#208;&#184;&#208;&#191; - &#208;&#179;&#208;&#190;&#209;&#128;&#208;&#184;&#208;&#183;&#208;&#190;&#208;&#189;&#209;&#130;&#208;&#176;&#208;&#187;&#209;&#140;&#208;&#189;&#209;&#139;&#208;&#185;" clip-path="url(#clip0_2001_10257)">
<g id="&#208;&#161;&#208;&#187;&#208;&#190;&#208;&#185; 2">
<g id="&#208;&#161;&#208;&#187;&#208;&#190;&#208;&#185; 1">
<path id="Vector" d="M0 0V36H36.2859V0H0ZM29.7728 24.7389H27.6583L19.4197 15.8329V24.7389H17.2952L9.05652 15.8329V24.7389H6.41337V11.2611H8.53787L16.7665 20.1671V11.2611H18.891L27.1297 20.1671V11.2611H29.7828L29.7728 24.7389Z" fill="#0000FF"/>
<path id="Vector_2" d="M50.3993 34.0606C48.4045 34.0606 46.8286 33.0711 46.7189 31.6065H48.2748C48.4344 32.319 49.2723 32.7742 50.3694 32.7742C51.4666 32.7742 52.1049 32.3487 52.1049 31.7846C52.1049 30.0034 46.8186 31.7846 46.8186 28.4004C46.8186 27.0942 48.205 26.2827 50.0403 26.2827C51.8755 26.2827 53.3517 27.2129 53.4714 28.5686H51.9254C51.7647 28.2174 51.4952 27.9262 51.1561 27.7375C50.8171 27.5489 50.4261 27.4725 50.0403 27.5197C48.993 27.5197 48.3147 27.9155 48.3147 28.4498C48.3147 30.1024 53.601 28.3707 53.601 31.8242C53.601 33.0513 52.3942 34.0606 50.3993 34.0606Z" fill="#0000FF"/>
<path id="Vector_3" d="M65.5999 26.2725C66.132 26.2459 66.6639 26.3269 67.1635 26.5106C67.663 26.6942 68.1197 26.9768 68.5058 27.341C68.8918 27.7052 69.1992 28.1434 69.4093 28.6291C69.6193 29.1149 69.7277 29.6379 69.7277 30.1664C69.7277 30.695 69.6193 31.218 69.4093 31.7037C69.1992 32.1894 68.8918 32.6277 68.5058 32.9919C68.1197 33.3561 67.663 33.6386 67.1635 33.8223C66.6639 34.006 66.132 34.0869 65.5999 34.0603C65.0679 34.0869 64.5359 34.006 64.0364 33.8223C63.5368 33.6386 63.0802 33.3561 62.6941 32.9919C62.308 32.6277 62.0006 32.1894 61.7906 31.7037C61.5805 31.218 61.4722 30.695 61.4722 30.1664C61.4722 29.6379 61.5805 29.1149 61.7906 28.6291C62.0006 28.1434 62.308 27.7052 62.6941 27.341C63.0802 26.9768 63.5368 26.6942 64.0364 26.5106C64.5359 26.3269 65.0679 26.2459 65.5999 26.2725ZM65.5999 32.6255C66.0858 32.6022 66.554 32.4379 66.9466 32.153C67.3392 31.8681 67.6388 31.475 67.8082 31.0227C67.9777 30.5704 68.0095 30.0786 67.8998 29.6085C67.79 29.1383 67.5436 28.7105 67.191 28.3781C66.8384 28.0457 66.3951 27.8233 65.9163 27.7386C65.4374 27.6539 64.944 27.7105 64.4973 27.9015C64.0506 28.0925 63.6703 28.4094 63.4035 28.8129C63.1368 29.2164 62.9953 29.6888 62.9967 30.1714C62.9876 30.5085 63.0495 30.8438 63.1785 31.1558C63.3075 31.4678 63.5006 31.7497 63.7456 31.9834C63.9906 32.2172 64.2821 32.3977 64.6014 32.5133C64.9207 32.629 65.2608 32.6773 65.5999 32.6552V32.6255Z" fill="#0000FF"/>
<path id="Vector_4" d="M77.8881 26.4312H84.0621V27.8066H79.3842V29.7363H83.8925V31.1315H79.3842V33.9023H77.8881V26.4312Z" fill="#0000FF"/>
<path id="Vector_5" d="M94.7543 27.8066H92.1212V26.4312H98.8936V27.8066H96.2704V33.9023H94.7543V27.8066Z" fill="#0000FF"/>
<path id="Vector_6" d="M107.95 26.4312L109.516 31.3789L111.092 26.4312H112.708L114.274 31.3789L115.84 26.4312H117.396L115.052 33.9023H113.486L111.93 28.9545L110.344 33.9023H108.718L106.364 26.4312H107.95Z" fill="#0000FF"/>
<path id="Vector_7" d="M127.669 26.4312H129.335L133.105 33.9023H131.439L130.552 32.1409H126.462L125.574 33.9023H123.919L127.669 26.4312ZM129.853 30.7753L128.497 28.0837L127.14 30.7753H129.853Z" fill="#0000FF"/>
<path id="Vector_8" d="M144.455 31.7252H142.461V33.9023H140.965V26.4311H144.815C145.184 26.4042 145.555 26.4521 145.905 26.5719C146.256 26.6917 146.578 26.8809 146.852 27.128C147.126 27.3751 147.347 27.675 147.501 28.0094C147.655 28.3438 147.738 28.7057 147.747 29.0732C147.73 29.5785 147.569 30.0686 147.283 30.487C146.997 30.9055 146.598 31.2352 146.131 31.4383L148.006 33.9023H146.151L144.455 31.7252ZM144.775 27.767H142.421V30.2805H144.775C144.952 30.2953 145.131 30.2745 145.3 30.2194C145.469 30.1642 145.625 30.0758 145.76 29.9595C145.894 29.8431 146.003 29.7012 146.08 29.5421C146.158 29.3831 146.202 29.2101 146.211 29.0336C146.201 28.8584 146.156 28.6869 146.077 28.5295C145.999 28.3721 145.89 28.2319 145.756 28.1174C145.621 28.0029 145.466 27.9163 145.297 27.8629C145.128 27.8095 144.951 27.7904 144.775 27.8066V27.767Z" fill="#0000FF"/>
<path id="Vector_9" d="M155.656 26.4312H161.83V27.8066H157.153V29.4691H161.82V30.8446H157.153V32.507H161.83V33.9023H155.656V26.4312Z" fill="#0000FF"/>
<path id="Vector_10" d="M50.0502 18.2376H46.8785V2.59277H49.4019L59.2165 12.9633V2.59277H62.3683V18.2376H59.8448L50.0502 7.79783V18.2376Z" fill="#0000FF"/>
<path id="Vector_11" d="M74.2874 2.25635C79.2146 2.25635 82.915 5.54167 82.915 10.4301C82.915 15.3185 79.2146 18.5642 74.2874 18.5642C69.3602 18.5642 65.6299 15.081 65.6299 10.4301C65.6299 5.77916 69.3303 2.25635 74.2874 2.25635ZM74.2874 15.5758C77.549 15.5758 79.7532 13.4482 79.7532 10.4301C79.7532 7.41193 77.549 5.2547 74.2874 5.2547C71.0259 5.2547 68.8216 7.35255 68.8216 10.4301C68.8132 11.1319 68.9511 11.8278 69.2265 12.4742C69.502 13.1207 69.909 13.7037 70.4222 14.1868C70.9353 14.6699 71.5435 15.0426 72.2086 15.2816C72.8737 15.5206 73.5815 15.6208 74.2874 15.5758Z" fill="#0000FF"/>
<path id="Vector_12" d="M89.3683 18.2376H86.2165V2.59277H88.7699L98.5445 12.9633V2.59277H101.736V18.2376H99.1529L89.3683 7.79783V18.2376Z" fill="#0000FF"/>
<path id="Vector_13" d="M112.209 2.59277H115.7L123.679 18.2376H120.158L118.293 14.5466H109.716L107.84 18.2376H104.349L112.209 2.59277ZM116.827 11.6868L113.965 6.05621L111.102 11.6868H116.827Z" fill="#0000FF"/>
<path id="Vector_14" d="M129.464 18.2376H126.303V2.59277H130.292L135.389 14.4674L140.456 2.59277H144.446V18.2376H141.334V8.20355L136.985 18.2376H133.803L129.464 8.15407V18.2376Z" fill="#0000FF"/>
<path id="Vector_15" d="M148.964 2.59277H161.98V5.47238H152.116V8.95561H162V11.8748H152.116V15.358H161.98V18.2673H148.964V2.59277Z" fill="#0000FF"/>
</g>
</g>
</g>
<defs>
<clipPath id="clip0_2001_10257">
<rect width="162" height="36" fill="white"/>
</clipPath>
</defs>
</svg>
