<svg width="0" height="0" class="hidden">
  <symbol fill="none" xmlns="http://www.w3.org/2000/svg" viewBox="0 0 12 16" id="ic_arr_hor">
    <path d="M2 2L9 8L2 14" stroke="currentColor" stroke-width="3" stroke-linecap="round" stroke-dasharray="20 20"></path>
  </symbol>
  <symbol fill="none" xmlns="http://www.w3.org/2000/svg" viewBox="0 0 13 8" id="ic_arr_ver">
    <path d="M1 1L6.5 6L12 1" stroke="currentColor" stroke-width="1.5" stroke-linecap="round"></path>
  </symbol>
  <symbol fill="none" xmlns="http://www.w3.org/2000/svg" viewBox="0 0 49 49" id="ic_close">
    <path d="M47 2L39.2433 9.75672M2 2L9.75672 9.75672M14.6047 14.6047L24.5 24.5M34.3953 14.6047L24.5 24.5M24.5 24.5L14.6047 34.3953M24.5 24.5L34.3953 34.3953M9.75672 39.2433L2 47M39.2433 39.2433L47 47" stroke="currentColor" stroke-width="4" stroke-linejoin="round"></path>
  </symbol>
  <symbol fill="none" xmlns="http://www.w3.org/2000/svg" viewBox="0 0 48 48" id="ic_fb">
    <path id="Vector" d="M48 24.0602C48 10.7789 37.248 0 24 0C10.752 0 0 10.7789 0 24.0602C0 35.7053 8.256 45.4015 19.2 47.6391V31.2782H14.4V24.0602H19.2V18.0451C19.2 13.4015 22.968 9.62406 27.6 9.62406H33.6V16.8421H28.8C27.48 16.8421 26.4 17.9248 26.4 19.2481V24.0602H33.6V31.2782H26.4V48C38.52 46.797 48 36.5474 48 24.0602Z" fill="currentColor"></path>
  </symbol>
  <symbol fill="none" xmlns="http://www.w3.org/2000/svg" viewBox="0 0 71 70" id="ic_link">
    <circle cx="35.5" cy="35" r="33.5" stroke="currentColor" stroke-width="3"></circle>
    <path d="M31.5 24L44.5 35L31.5 46" stroke="currentColor" stroke-width="3" stroke-linecap="round" stroke-dasharray="15.91 15.91"></path>
  </symbol>
  <symbol fill="none" xmlns="http://www.w3.org/2000/svg" viewBox="0 0 48 48" id="ic_linkedin">
    <path id="Vector" d="M24 0C10.745 0 0 10.745 0 24C0 37.255 10.745 48 24 48C37.255 48 48 37.255 48 24C48 10.745 37.255 0 24 0ZM18.125 33.9475H13.265V18.3075H18.125V33.9475ZM15.665 16.3875C14.13 16.3875 13.1375 15.3 13.1375 13.955C13.1375 12.5825 14.16 11.5275 15.7275 11.5275C17.295 11.5275 18.255 12.5825 18.285 13.955C18.285 15.3 17.295 16.3875 15.665 16.3875ZM35.875 33.9475H31.015V25.28C31.015 23.2625 30.31 21.8925 28.5525 21.8925C27.21 21.8925 26.4125 22.82 26.06 23.7125C25.93 24.03 25.8975 24.48 25.8975 24.9275V33.945H21.035V23.295C21.035 21.3425 20.9725 19.71 20.9075 18.305H25.13L25.3525 20.4775H25.45C26.09 19.4575 27.6575 17.9525 30.28 17.9525C33.4775 17.9525 35.875 20.095 35.875 24.7V33.9475Z" fill="currentColor"></path>
  </symbol>
  <symbol fill="none" xmlns="http://www.w3.org/2000/svg" viewBox="0 0 30 30" id="ic_menu">
    <circle cx="3" cy="3" r="3" fill="currentColor"></circle>
    <circle cx="3" cy="15" r="3" fill="currentColor"></circle>
    <circle cx="3" cy="27" r="3" fill="currentColor"></circle>
    <circle cx="15" cy="3" r="3" fill="currentColor"></circle>
    <circle cx="15" cy="15" r="3" fill="currentColor"></circle>
    <circle cx="15" cy="27" r="3" fill="currentColor"></circle>
    <circle cx="27" cy="3" r="3" fill="currentColor"></circle>
    <circle cx="27" cy="15" r="3" fill="currentColor"></circle>
    <circle cx="27" cy="27" r="3" fill="currentColor"></circle>
  </symbol>
  <symbol fill="none" xmlns="http://www.w3.org/2000/svg" viewBox="0 0 30 30" id="ic_menu_close">
    <circle cx="3" cy="3" r="3" fill="currentColor"></circle>
    <circle cx="3" cy="27" r="3" fill="currentColor"></circle>
    <circle cx="9" cy="21" r="3" fill="currentColor"></circle>
    <circle cx="21" cy="9" r="3" fill="currentColor"></circle>
    <circle cx="15" cy="15" r="3" fill="currentColor"></circle>
    <circle cx="21" cy="21" r="3" fill="currentColor"></circle>
    <circle cx="9" cy="9" r="3" fill="currentColor"></circle>
    <circle cx="27" cy="3" r="3" fill="currentColor"></circle>
    <circle cx="27" cy="27" r="3" fill="currentColor"></circle>
  </symbol>
</svg>